:SAMPLES-PER-SECOND 30
:FULLY-SPECIFIED
:DEGREES
261
root  116.513 17.9488 2.05148 -55.7757 59.6007 172.68
RightUpLeg  -126.229 9.00102 161.515
RightLeg  113.025 -35.6347 63.6802
RightFoot  11.741 6.67855 -31.8655
RightToes  1.16415e-010 -3.18055e-015 8.94531e-016
Spine  -11.4766 14.3421 4.51122
Spine1  36.1254 -1.54877 13.9983
HEad  53.9615 34.4066 -64.9695
LeftShoulder1  0 -2.69403e-036 -1.28585e-037
LeftArm  -9.95356 75.2335 -144.487
LeftForeArm  -16.4918 -33.9357 22.4431
LeftHand  5.65268 8.43702 31.5608
RightShoulder  -2.48481e-017 0 -8.08114e-019
RightArm  -96.2459 -23.269 87.5411
RightForeArm  162.425 39.5529 -35.0933
RightHand  -24.6349 23.609 -69.261
LeftUpLeg  -144.561 18.6074 21.4873
LeftLeg  105.608 -8.73609 -16.2689
LeftFoot  14.2292 0.78422 -3.0087
LeftToes  4.502e-010 -1.85808e-011 5.37561e-011
262
root  115.884 17.7673 3.62132 -57.0426 60.0974 167.949
RightUpLeg  -117.75 4.65829 164.431
RightLeg  86.9719 -34.409 108.634
RightFoot  6.91669 13.6489 -41.7416
RightToes  1.16415e-010 -3.18055e-015 8.94531e-016
Spine  -13.1457 13.9255 2.88286
Spine1  32.9768 0.98588 13.8447
HEad  55.7082 25.0286 -50.4353
LeftShoulder1  0 -2.69403e-036 -1.28585e-037
LeftArm  66.7049 68.306 -115.628
LeftForeArm  -56.295 -33.4356 19.6388
LeftHand  -2.17993 1.51061 45.6107
RightShoulder  -2.48481e-017 0 -8.08114e-019
RightArm  -69.7043 -40.9202 78.7029
RightForeArm  126.93 47.2932 -44.4805
RightHand  -38.9331 39.7837 -71.5082
LeftUpLeg  -149.985 21.9828 20.077
LeftLeg  105.962 -7.70462 -19.5767
LeftFoot  15.0255 1.46283 -5.58324
LeftToes  4.502e-010 -1.85808e-011 5.37561e-011
263
root  115.091 17.5851 5.25385 -58.5273 60.9828 162.551
RightUpLeg  -104.472 2.16078 166.176
RightLeg  156.647 -67.9126 17.7331
RightFoot  76.9849 -20.3066 -14.4462
RightToes  1.16415e-010 -3.18055e-015 8.94531e-016
Spine  -13.8718 13.4744 1.57574
Spine1  27.1507 4.27997 11.6253
HEad  54.9898 16.7209 -38.4628
LeftShoulder1  0 -2.69403e-036 -1.28585e-037
LeftArm  106.286 58.221 -98.905
LeftForeArm  -78.9721 -49.0117 26.1929
LeftHand  -4.53504 -0.714178 52.9621
RightShoulder  -2.48481e-017 0 -8.08114e-019
RightArm  -44.7073 -63.0903 66.1053
RightForeArm  77.2517 59.4193 -76.2909
RightHand  -42.7443 45.975 -69.3743
LeftUpLeg  -156.299 25.0436 17.6865
LeftLeg  105.939 -6.76579 -23.0716
LeftFoot  15.9038 2.29836 -8.58276
LeftToes  4.502e-010 -1.85808e-011 5.37561e-011
264
root  115.161 17.3659 5.85013 -59.6885 60.2997 158.981
RightUpLeg  -101.878 1.95182 167.613
RightLeg  126.58 -12.8573 35.4434
RightFoot  100.628 -65.0345 55.6951
RightToes  1.16415e-010 -3.18055e-015 8.94531e-016
Spine  -9.21327 13.3331 1.47632
Spine1  19.9507 6.56203 10.0926
HEad  51.6456 12.5886 -34.3231
LeftShoulder1  0 -2.69403e-036 -1.28585e-037
LeftArm  114.246 52.2157 -95.3897
LeftForeArm  -87.2148 -53.7525 30.0601
LeftHand  -5.15194 -1.34328 54.7322
RightShoulder  -2.48481e-017 0 -8.08114e-019
RightArm  -35.0283 -69.9746 58.0206
RightForeArm  67.3496 59.8855 -83.8151
RightHand  -40.3882 44.0454 -68.254
LeftUpLeg  -158.315 26.0053 16.7076
LeftLeg  105.154 -6.76076 -24.2992
LeftFoot  15.4456 2.39551 -9.09317
LeftToes  4.502e-010 -1.85808e-011 5.37561e-011
265
root  115.855 17.2788 5.69403 -59.084 59.7392 158.164
RightUpLeg  -108.271 2.24772 167.14
RightLeg  113.84 -42.4284 65.695
RightFoot  34.1762 -58.7029 102.814
RightToes  1.16415e-010 -3.18055e-015 8.94531e-016
Spine  -8.10281 12.9322 1.74703
Spine1  17.3387 6.52392 9.86113
HEad  49.1926 12.4706 -34.0948
LeftShoulder1  0 -2.69403e-036 -1.28585e-037
LeftArm  114.247 50.7673 -95.8144
LeftForeArm  -88.9422 -49.7559 26.9335
LeftHand  -4.18449 -0.333909 52.0087
RightShoulder  -2.48481e-017 0 -8.08114e-019
RightArm  -32.9049 -67.2459 56.5202
RightForeArm  82.2433 56.7975 -68.4674
RightHand  -38.4109 40.5689 -69.5457
LeftUpLeg  -157.33 25.2479 15.9097
LeftLeg  103.657 -7.64384 -23.2661
LeftFoot  14.5649 1.96458 -7.706
LeftToes  4.502e-010 -1.85808e-011 5.37561e-011
266
root  116.414 17.4901 5.62575 -55.1522 61.1069 160.295
RightUpLeg  -110.441 2.79687 165.095
RightLeg  96.3988 -44.7637 90.1557
RightFoot  18.5673 -45.6885 111.675
RightToes  1.16415e-010 -3.18055e-015 8.94531e-016
Spine  -6.0396 12.6133 2.28203
Spine1  14.4087 7.04623 7.57663
HEad  47.4155 11.1118 -34.0175
LeftShoulder1  0 -2.69403e-036 -1.28585e-037
LeftArm  115.128 49.4058 -92.8084
LeftForeArm  -88.2117 -47.5376 25.5158
LeftHand  -3.25042 0.746564 49.4256
RightShoulder  -2.48481e-017 0 -8.08114e-019
RightArm  -29.977 -65.0869 55.9084
RightForeArm  91.3394 52.5699 -57.2131
RightHand  -40.383 41.2604 -71.6645
LeftUpLeg  -157.022 24.6905 13.4755
LeftLeg  101.649 -8.79608 -21.3976
LeftFoot  14.6189 1.78198 -6.95464
LeftToes  4.502e-010 -1.85808e-011 5.37561e-011
267
root  116.998 17.6849 5.50885 -50.3703 62.8375 162.777
RightUpLeg  -111.283 3.77586 163.285
RightLeg  87.0047 -42.9962 104.135
RightFoot  12.6836 -38.5456 113.403
RightToes  1.16415e-010 -3.18055e-015 8.94531e-016
Spine  -3.77206 11.9946 2.90861
Spine1  11.3136 7.41702 5.0398
HEad  45.5402 9.318 -33.9147
LeftShoulder1  0 -2.69403e-036 -1.28585e-037
LeftArm  116.032 47.9226 -89.3721
LeftForeArm  -87.0203 -44.9655 24.0327
LeftHand  -2.24037 2.04432 46.572
RightShoulder  -2.48481e-017 0 -8.08114e-019
RightArm  -26.8947 -62.7867 55.7887
RightForeArm  97.6633 47.1985 -47.8807
RightHand  -43.0143 42.7032 -73.7581
LeftUpLeg  -157.223 23.8524 10.7962
LeftLeg  99.583 -9.87599 -19.1187
LeftFoot  14.9644 1.62882 -6.25895
LeftToes  4.502e-010 -1.85808e-011 5.37561e-011
268
root  117.556 17.8652 5.53091 -46.5386 63.6667 164.832
RightUpLeg  -111.765 2.49134 164.239
RightLeg  85.2484 -41.1399 107.604
RightFoot  12.5301 -38.7834 114.154
RightToes  1.16415e-010 -3.18055e-015 8.94531e-016
Spine  -1.90579 11.7867 2.23813
Spine1  8.61726 7.22082 3.5791
HEad  42.7863 7.89545 -33.139
LeftShoulder1  0 -2.69403e-036 -1.28585e-037
LeftArm  118.164 45.7431 -86.6902
LeftForeArm  -87.9667 -42.0185 22.4512
LeftHand  -1.17449 3.58026 43.4573
RightShoulder  -2.48481e-017 0 -8.08114e-019
RightArm  -22.9905 -60.3982 55.1466
RightForeArm  101.425 41.6198 -40.8809
RightHand  -42.5104 41.97 -73.9422
LeftUpLeg  -157.274 23.6115 8.95324
LeftLeg  97.4718 -10.7239 -17.3573
LeftFoot  16.0429 1.56389 -5.76214
LeftToes  4.502e-010 -1.85808e-011 5.37561e-011
269
root  118.041 18.0191 5.60155 -44.2803 64.2905 166.036
RightUpLeg  -112.13 -0.701045 167.673
RightLeg  87.2881 -39.3103 105.51
RightFoot  15.5903 -44.1761 115.479
RightToes  1.16415e-010 -3.18055e-015 8.94531e-016
Spine  -0.377183 11.8403 0.694679
Spine1  6.75346 6.58203 2.9291
HEad  39.3313 6.87037 -31.8463
LeftShoulder1  0 -2.69403e-036 -1.28585e-037
LeftArm  121.623 43.2329 -83.9536
LeftForeArm  -89.8743 -39.0716 20.9994
LeftHand  -0.0760058 5.37124 39.9875
RightShoulder  -2.48481e-017 0 -8.08114e-019
RightArm  -18.245 -57.7222 54.4978
RightForeArm  101.764 36.3448 -35.7263
RightHand  -40.5776 40.885 -72.4636
LeftUpLeg  -156.863 23.2377 7.84498
LeftLeg  95.485 -11.3861 -15.7647
LeftFoot  17.5152 1.52809 -5.32976
LeftToes  4.502e-010 -1.85808e-011 5.37561e-011
270
root  118.466 18.1416 5.63689 -42.5705 65.1693 166.931
RightUpLeg  -112.043 -3.68354 170.807
RightLeg  88.7118 -36.7689 104.566
RightFoot  18.0203 -49.1231 117.204
RightToes  1.16415e-010 -3.18055e-015 8.94531e-016
Spine  0.915709 11.6208 -0.599566
Spine1  5.46291 5.82114 2.34639
HEad  35.5321 5.79 -30.2414
LeftShoulder1  0 -2.69403e-036 -1.28585e-037
LeftArm  124.518 40.6581 -80.6302
LeftForeArm  -90.4401 -36.0284 19.6445
LeftHand  1.01352 7.42999 35.8368
RightShoulder  -2.48481e-017 0 -8.08114e-019
RightArm  -12.6131 -54.7947 54.1513
RightForeArm  98.7332 31.3913 -31.7696
RightHand  -39.3507 40.8368 -70.6619
LeftUpLeg  -156.339 22.6155 7.11277
LeftLeg  93.8074 -11.8706 -14.2209
LeftFoot  18.6973 1.5289 -5.1109
LeftToes  4.502e-010 -1.85808e-011 5.37561e-011
271
root  118.933 18.1952 5.70731 -41.8438 64.9809 167.166
RightUpLeg  -112.265 -5.68619 171.959
RightLeg  87.6802 -34.0674 107.94
RightFoot  17.5832 -50.3945 119.443
RightToes  1.16415e-010 -3.18055e-015 8.94531e-016
Spine  1.68134 10.9839 -1.29304
Spine1  4.49379 5.03936 2.02861
HEad  31.0815 4.85267 -27.9753
LeftShoulder1  0 -2.69403e-036 -1.28585e-037
LeftArm  124.811 37.9449 -77.2903
LeftForeArm  -89.3563 -32.4899 18.3735
LeftHand  1.94564 9.60781 30.5728
RightShoulder  -2.48481e-017 0 -8.08114e-019
RightArm  -5.92341 -51.7783 53.6234
RightForeArm  94.4351 27.0811 -28.8014
RightHand  -37.2494 39.4217 -69.1925
LeftUpLeg  -155.594 22.9695 7.38371
LeftLeg  92.4147 -12.1868 -13.596
LeftFoot  19.7229 1.58104 -5.10569
LeftToes  4.502e-010 -1.85808e-011 5.37561e-011
272
root  119.515 18.2022 5.82501 -42.5806 63.3099 166.717
RightUpLeg  -113.876 -7.95269 173.046
RightLeg  86.2555 -31.8332 112.138
RightFoot  16.4087 -51.1305 122.217
RightToes  1.16415e-010 -3.18055e-015 8.94531e-016
Spine  1.97993 10.4936 -2.04452
Spine1  3.93738 4.1395 2.1879
HEad  25.6399 4.38006 -24.8576
LeftShoulder1  0 -2.69403e-036 -1.28585e-037
LeftArm  120.081 35.2166 -74.2356
LeftForeArm  -84.2006 -28.7189 16.4395
LeftHand  2.44411 11.3299 24.3995
RightShoulder  -2.48481e-017 0 -8.08114e-019
RightArm  1.79227 -48.5498 53.0071
RightForeArm  88.4382 23.5451 -26.5659
RightHand  -33.5573 36.0557 -67.5392
LeftUpLeg  -154.024 24.409 8.77457
LeftLeg  90.9069 -12.4851 -14.0297
LeftFoot  21.5562 1.5584 -4.74234
LeftToes  4.502e-010 -1.85808e-011 5.37561e-011
273
root  119.937 17.8442 5.80968 -48.0821 62.8987 161.606
RightUpLeg  -117.256 -4.67522 169.571
RightLeg  81.9085 -31.016 120.275
RightFoot  12.5282 -45.0114 122.414
RightToes  1.16415e-010 -3.18055e-015 8.94531e-016
Spine  2.24172 8.43746 -1.7993
Spine1  3.61433 3.08781 2.57053
HEad  19.5449 3.83137 -21.054
LeftShoulder1  0 -2.69403e-036 -1.28585e-037
LeftArm  92.6466 31.6935 -70.8276
LeftForeArm  -54.4979 -23.4474 6.93736
LeftHand  2.30278 11.6885 17.9573
RightShoulder  -2.48481e-017 0 -8.08114e-019
RightArm  7.30082 -44.9085 52.786
RightForeArm  78.9901 21.1784 -23.2597
RightHand  -30.8143 35.4838 -63.6223
LeftUpLeg  -152.753 22.949 10.4023
LeftLeg  90.6246 -12.5405 -14.3653
LeftFoot  22.982 1.25807 -3.61205
LeftToes  4.502e-010 -1.85808e-011 5.37561e-011
274
root  120.176 17.3775 5.68854 -55.6809 64.6949 154.251
RightUpLeg  -120.792 0.732321 165.892
RightLeg  77.4585 -30.8919 127.77
RightFoot  8.81366 -38.4567 121.822
RightToes  1.16415e-010 -3.18055e-015 8.94531e-016
Spine  2.6805 5.53281 -1.09372
Spine1  3.48826 1.96967 2.61878
HEad  13.1032 2.71394 -16.3124
LeftShoulder1  0 -2.69403e-036 -1.28585e-037
LeftArm  49.6809 27.8791 -65.9315
LeftForeArm  -11.9153 -14.0953 -3.98607
LeftHand  1.38732 8.87746 11.5713
RightShoulder  -2.48481e-017 0 -8.08114e-019
RightArm  9.56015 -40.9789 53.0186
RightForeArm  59.6617 19.5391 -18.2488
RightHand  -25.3801 39.9624 -48.6954
LeftUpLeg  -152.636 18.6283 10.6093
LeftLeg  91.9362 -12.2854 -13.8576
LeftFoot  22.433 0.851748 -2.41452
LeftToes  4.502e-010 -1.85808e-011 5.37561e-011
275
root  120.535 17.2802 5.64545 -59.3983 66.0293 151.337
RightUpLeg  -123.007 0.598667 167.663
RightLeg  77.386 -29.6376 129.379
RightFoot  8.83926 -40.0076 123.832
RightToes  1.16415e-010 -3.18055e-015 8.94531e-016
Spine  3.17065 4.08592 -1.47862
Spine1  3.65548 0.837509 2.18143
HEad  6.05062 1.50461 -9.82152
LeftShoulder1  0 -2.69403e-036 -1.28585e-037
LeftArm  21.286 25.3806 -60.3081
LeftForeArm  3.46827 -9.27524 -5.33795
LeftHand  0.238739 2.91654 5.00819
RightShoulder  -2.48481e-017 0 -8.08114e-019
RightArm  12.4824 -36.974 53.5787
RightForeArm  18.1992 18.1364 -12.6689
RightHand  -10.2574 27.7603 -18.9824
LeftUpLeg  -152.798 15.957 9.55745
LeftLeg  93.713 -11.9493 -13.3236
LeftFoot  19.8694 0.651784 -1.97971
LeftToes  4.502e-010 -1.85808e-011 5.37561e-011
